<svg width="37" height="19" viewBox="0 0 37 19" fill="none" xmlns="http://www.w3.org/2000/svg">
<mask id="mask0_44_37408" style="mask-type:luminance" maskUnits="userSpaceOnUse" x="0" y="0" width="37" height="19">
<path d="M36.3799 0H0V18.9953H36.3799V0Z" fill="white"/>
</mask>
<g mask="url(#mask0_44_37408)">
<mask id="mask1_44_37408" style="mask-type:luminance" maskUnits="userSpaceOnUse" x="0" y="0" width="37" height="19">
<path d="M36.3799 0H0V18.9953H36.3799V0Z" fill="white"/>
</mask>
<g mask="url(#mask1_44_37408)">
<path fill-rule="evenodd" clip-rule="evenodd" d="M12.1092 1.44309C14.4891 0.490362 17.0398 0 19.6158 0V9.53488C20.9065 9.53488 22.1843 9.77958 23.3764 10.255C24.5688 10.7305 25.6522 11.4272 26.5646 12.3056C27.4773 13.1842 28.2011 14.2271 28.695 15.3749C29.1888 16.5227 29.443 17.7528 29.443 18.9953H19.6158V9.53689C18.3357 9.53689 17.0681 9.78061 15.8855 10.254C14.7028 10.7274 13.6282 11.4214 12.7229 12.2962C11.8178 13.1711 11.0998 14.2097 10.6098 15.3527C10.12 16.4957 9.86781 17.7208 9.86781 18.958H0C0 16.4684 0.507378 14.0031 1.49317 11.7031C2.47896 9.40303 3.92384 7.31308 5.74535 5.55267C7.56685 3.79226 9.72931 2.39583 12.1092 1.44309ZM36.3799 18.9953C36.3799 17.7528 36.1266 16.5227 35.6348 15.375C35.1429 14.2271 34.4219 13.1842 33.513 12.3057C32.6039 11.4273 31.5247 10.7305 30.3373 10.2551C30.044 10.1377 29.7456 10.0343 29.443 9.94532V18.9953H36.3799Z" fill="black"/>
</g>
</g>
</svg>
