<svg width="52" height="27" viewBox="0 0 52 27" fill="none" xmlns="http://www.w3.org/2000/svg">
<mask id="mask0_2023_12997" style="mask-type:luminance" maskUnits="userSpaceOnUse" x="0" y="0" width="52" height="27">
<path d="M51.6201 0H0V26.91H51.6201V0Z" fill="white"/>
</mask>
<g mask="url(#mask0_2023_12997)">
<mask id="mask1_2023_12997" style="mask-type:luminance" maskUnits="userSpaceOnUse" x="0" y="0" width="52" height="27">
<path d="M51.6201 0H0V26.91H51.6201V0Z" fill="white"/>
</mask>
<g mask="url(#mask1_2023_12997)">
<path fill-rule="evenodd" clip-rule="evenodd" d="M17.182 2.04438C20.5589 0.69468 24.1782 0 27.8333 0V13.5077C29.6646 13.5077 31.4777 13.8544 33.1693 14.5279C34.8612 15.2015 36.3984 16.1885 37.6931 17.433C38.9881 18.6776 40.0151 20.1551 40.7159 21.7811C41.4166 23.4071 41.7773 25.1498 41.7773 26.91H27.8333V13.5106C26.0169 13.5106 24.2182 13.8559 22.5402 14.5265C20.8621 15.1972 19.3373 16.1803 18.0528 17.4196C16.7685 18.6591 15.7497 20.1304 15.0544 21.7497C14.3595 23.369 14.0016 25.1044 14.0016 26.8571H0C0 23.3303 0.719928 19.8378 2.11869 16.5794C3.51744 13.321 5.56762 10.3602 8.15219 7.86628C10.7367 5.37237 13.8051 3.39409 17.182 2.04438ZM51.6201 26.91C51.6201 25.1498 51.2608 23.4071 50.5629 21.7813C49.8649 20.1551 48.8419 18.6776 47.5522 17.4331C46.2624 16.1887 44.731 15.2015 43.0462 14.5281C42.63 14.3617 42.2067 14.2153 41.7773 14.0892V26.91H51.6201Z" fill="black"/>
</g>
</g>
</svg>
