<svg width="20" height="20" viewBox="0 0 20 20" fill="none" xmlns="http://www.w3.org/2000/svg">
<path fill-rule="evenodd" clip-rule="evenodd" d="M19.9792 1.3475L16.8563 19.0702C16.7097 19.9018 15.8879 20.2754 15.3109 19.7726L10.5957 15.6643L8.19249 18.5768C7.77072 19.088 7.04212 18.8811 6.86091 18.1987L5.12624 11.6652L0.478128 10.0359C-0.131689 9.82221 -0.167642 8.81304 0.424829 8.53896L18.7165 0.078074C19.4127 -0.24395 20.1322 0.479322 19.9792 1.3475ZM6.48491 10.7445L16.5182 3.35841C16.749 3.18849 16.9853 3.56551 16.7818 3.77895L8.28543 12.6968C8.20074 12.7857 8.14684 12.9088 8.13424 13.0421L7.80712 16.4937C7.79644 16.6062 7.66367 16.6211 7.6354 16.513L6.28954 11.3655C6.2279 11.1298 6.30827 10.8745 6.48491 10.7445Z" fill="white"/>
</svg>
