<svg width="27" height="27" viewBox="0 0 27 27" fill="none" xmlns="http://www.w3.org/2000/svg">
<g clip-path="url(#clip0_2003_5045)">
<path fill-rule="evenodd" clip-rule="evenodd" d="M21.9823 6.99955L19.3278 20.1459C19.2032 20.7628 18.5047 21.0398 18.0143 20.6669L14.0063 17.6195L11.9636 19.7799C11.6051 20.1591 10.9858 20.0056 10.8318 19.4994L9.3573 14.653L5.40641 13.4445C4.88806 13.2859 4.8575 12.5373 5.3611 12.334L20.909 6.05791C21.5008 5.81904 22.1124 6.35555 21.9823 6.99955ZM10.5121 13.97L19.0405 8.49119C19.2366 8.36516 19.4374 8.64482 19.2645 8.80314L12.0426 15.4182C11.9706 15.4842 11.9248 15.5754 11.9141 15.6744L11.636 18.2346C11.6269 18.3181 11.5141 18.3292 11.4901 18.249L10.3461 14.4307C10.2937 14.2559 10.362 14.0665 10.5121 13.97Z" fill="white"/>
</g>
<defs>
<clipPath id="clip0_2003_5045">
<rect width="27" height="27" fill="white"/>
</clipPath>
</defs>
</svg>
