<svg width="27" height="27" viewBox="0 0 27 27" fill="none" xmlns="http://www.w3.org/2000/svg">
<g clip-path="url(#clip0_2003_5053)">
<path d="M20.5943 9.31203C20.3339 8.40257 19.8183 7.68417 19.0631 7.17594C18.1099 6.5327 17.0136 6.30597 16.067 6.16713C14.7571 5.97607 13.5709 5.94932 12.4394 6.08434C11.3795 6.21171 10.5814 6.41424 9.85349 6.74159C8.42642 7.38356 7.56966 8.42167 7.30794 9.82663C7.18034 10.5094 7.0944 11.1259 7.04492 11.7143C6.93034 13.0747 7.0345 14.2784 7.36263 15.3942C7.68294 16.482 8.24153 17.259 9.07095 17.7698C9.28188 17.8997 9.55271 17.9939 9.81443 18.0844C9.96287 18.1353 10.1074 18.185 10.2259 18.2398C10.3353 18.2895 10.3353 18.2984 10.334 18.3875C10.3248 19.1607 10.334 20.6765 10.334 20.6765L10.3366 21H10.9303L11.0267 20.9083C11.0905 20.8497 12.5618 19.4588 13.0865 18.8983L13.1582 18.8206C13.248 18.7187 13.248 18.7187 13.3404 18.7174C14.0488 18.7034 14.7727 18.6767 15.4915 18.6385C16.3626 18.5926 17.3717 18.5098 18.3222 18.1226C19.192 17.7672 19.8274 17.2029 20.2089 16.4463C20.6073 15.6566 20.843 14.8019 20.9315 13.8326C21.0878 12.1283 20.9771 10.6495 20.5943 9.31203ZM17.4615 15.9394C17.2428 16.2871 16.9172 16.5291 16.5331 16.6858C16.2519 16.8004 15.9654 16.7762 15.6881 16.6616C13.3665 15.6999 11.5449 14.1854 10.3418 12.0073C10.0931 11.5589 9.9212 11.0698 9.72329 10.596C9.68292 10.4992 9.68553 10.3845 9.6673 10.2775C9.68422 9.51201 10.2845 9.08021 10.8912 8.95028C11.123 8.89933 11.3287 8.97958 11.5006 9.14135C11.9772 9.58461 12.3535 10.1005 12.6373 10.6788C12.761 10.9322 12.705 11.1564 12.4941 11.3449C12.4498 11.3844 12.4043 11.4201 12.3561 11.4558C11.8743 11.8099 11.804 12.0786 12.0605 12.6123C12.498 13.5205 13.2246 14.1306 14.1634 14.5089C14.4107 14.6083 14.6438 14.5586 14.8326 14.3625C14.8587 14.337 14.8873 14.3115 14.9055 14.2809C15.2753 13.6772 15.8131 13.7371 16.3092 14.081C16.6347 14.3077 16.9511 14.5472 17.2727 14.7777C17.7636 15.1305 17.7597 15.4617 17.4615 15.9394ZM14.3821 9.91324C14.2727 9.91324 14.1634 9.92216 14.0553 9.93999C13.873 9.96929 13.7024 9.84955 13.6712 9.67123C13.6412 9.49418 13.7636 9.32604 13.9459 9.29674C14.0891 9.27254 14.2363 9.26108 14.3821 9.26108C15.8261 9.26108 17.0006 10.41 17.0006 11.8226C17.0006 11.9665 16.9889 12.1105 16.9641 12.2493C16.9368 12.4085 16.7961 12.5219 16.636 12.5219C16.6178 12.5219 16.5995 12.5206 16.58 12.5168C16.399 12.4875 16.2766 12.3194 16.3066 12.1423C16.3248 12.0379 16.3339 11.9309 16.3339 11.8226C16.3339 10.7705 15.4576 9.91324 14.3821 9.91324ZM16.0006 11.8697C16.0006 12.0493 15.8508 12.1958 15.6673 12.1958C15.4837 12.1958 15.3339 12.0493 15.3339 11.8697C15.3339 11.3309 14.8847 10.8915 14.3339 10.8915C14.1503 10.8915 14.0006 10.745 14.0006 10.5654C14.0006 10.3858 14.1503 10.2393 14.3339 10.2393C15.2532 10.2393 16.0006 10.9705 16.0006 11.8697ZM17.9042 12.5945C17.8691 12.7461 17.731 12.848 17.5787 12.848C17.554 12.848 17.5292 12.8454 17.5045 12.8403C17.3248 12.7996 17.2128 12.6251 17.2532 12.4493C17.3014 12.2417 17.3261 12.0264 17.3261 11.8099C17.3261 10.2253 16.0071 8.935 14.3873 8.935C14.166 8.935 13.9459 8.9592 13.7337 9.00633C13.554 9.04709 13.3756 8.93627 13.3352 8.76049C13.2936 8.58471 13.4069 8.41021 13.5865 8.37072C13.847 8.31213 14.1165 8.28284 14.3873 8.28284C16.3756 8.28284 17.9928 9.86484 17.9928 11.8099C17.9928 12.0748 17.9628 12.3385 17.9042 12.5945Z" fill="white"/>
</g>
<defs>
<clipPath id="clip0_2003_5053">
<rect width="27" height="27" fill="white"/>
</clipPath>
</defs>
</svg>
