<svg width="20" height="22" viewBox="0 0 20 22" fill="none" xmlns="http://www.w3.org/2000/svg">
<path d="M19.4204 4.73147C19.0484 3.43224 18.3118 2.40596 17.2329 1.67992C15.8713 0.760995 14.3051 0.437097 12.9528 0.238756C11.0816 -0.0341919 9.38702 -0.0724044 7.77059 0.120479C6.25646 0.302444 5.11622 0.591767 4.07642 1.05942C2.03774 1.97652 0.813795 3.45953 0.439914 5.46661C0.257624 6.44194 0.134857 7.32265 0.0641734 8.16333C-0.0995158 10.1067 0.0492926 11.8263 0.518039 13.4203C0.975625 14.9743 1.77361 16.0843 2.9585 16.8139C3.25983 16.9995 3.64673 17.1342 4.02062 17.2634C4.23267 17.3362 4.43914 17.4071 4.60841 17.4854C4.76466 17.5564 4.76466 17.5691 4.7628 17.6965C4.74978 18.801 4.7628 20.9664 4.7628 20.9664L4.76652 21.4286H5.61473L5.75237 21.2976C5.84352 21.2139 7.94544 19.2268 8.69506 18.4262L8.79737 18.3152C8.92571 18.1696 8.92571 18.1696 9.05778 18.1678C10.0697 18.1477 11.1039 18.1095 12.1307 18.0549C13.3751 17.9894 14.8167 17.8712 16.1745 17.318C17.4171 16.8103 18.3248 16.0042 18.8698 14.9233C19.439 13.7951 19.7757 12.5742 19.9022 11.1894C20.1254 8.75471 19.9673 6.6421 19.4204 4.73147ZM14.945 14.1991C14.6325 14.6959 14.1675 15.0416 13.6188 15.2654C13.217 15.4292 12.8078 15.3946 12.4115 15.2308C9.09498 13.857 6.4927 11.6934 4.77396 8.58185C4.41868 7.94133 4.17314 7.24259 3.89041 6.56568C3.83275 6.42738 3.83647 6.26361 3.81042 6.11076C3.83461 5.01715 4.69211 4.40029 5.55892 4.21469C5.89002 4.1419 6.18392 4.25654 6.42945 4.48764C7.11025 5.12088 7.64782 5.85783 8.05332 6.68395C8.23003 7.04606 8.15005 7.36632 7.84871 7.63563C7.78547 7.69204 7.72037 7.74299 7.65154 7.79394C6.9633 8.2998 6.86286 8.68375 7.2293 9.44618C7.85429 10.7436 8.89223 11.6152 10.2334 12.1556C10.5868 12.2976 10.9197 12.2266 11.1895 11.9464C11.2267 11.91 11.2676 11.8736 11.2936 11.8299C11.8219 10.9674 12.5901 11.0529 13.2988 11.5442C13.7638 11.8681 14.2159 12.2102 14.6753 12.5396C15.3766 13.0436 15.371 13.5167 14.945 14.1991ZM10.5459 5.59034C10.3896 5.59034 10.2334 5.60308 10.079 5.62856C9.81856 5.67041 9.57489 5.49936 9.53025 5.24461C9.48746 4.99168 9.66231 4.75149 9.92273 4.70963C10.1273 4.67506 10.3375 4.65868 10.5459 4.65868C12.6087 4.65868 14.2865 6.30001 14.2865 8.318C14.2865 8.52362 14.2698 8.72924 14.2345 8.92758C14.1954 9.15504 13.9945 9.31699 13.7657 9.31699C13.7397 9.31699 13.7136 9.31517 13.6857 9.30971C13.4272 9.26785 13.2523 9.02766 13.2951 8.77473C13.3211 8.62552 13.3342 8.47267 13.3342 8.318C13.3342 6.81497 12.0823 5.59034 10.5459 5.59034ZM12.858 8.38532C12.858 8.6419 12.6441 8.85116 12.3818 8.85116C12.1195 8.85116 11.9056 8.6419 11.9056 8.38532C11.9056 7.61561 11.2639 6.98783 10.477 6.98783C10.2148 6.98783 10.0009 6.77857 10.0009 6.522C10.0009 6.26543 10.2148 6.05617 10.477 6.05617C11.7903 6.05617 12.858 7.10065 12.858 8.38532ZM15.5774 9.42071C15.5272 9.63724 15.3301 9.78282 15.1124 9.78282C15.0771 9.78282 15.0417 9.77918 15.0064 9.7719C14.7497 9.71367 14.5897 9.46438 14.6474 9.21327C14.7162 8.91666 14.7516 8.60914 14.7516 8.2998C14.7516 6.03616 12.8673 4.19285 10.5533 4.19285C10.2371 4.19285 9.92273 4.22743 9.61953 4.29475C9.36284 4.35298 9.108 4.19467 9.05034 3.94356C8.99082 3.69245 9.15265 3.44316 9.40934 3.38675C9.78136 3.30305 10.1664 3.26119 10.5533 3.26119C13.3937 3.26119 15.7039 5.5212 15.7039 8.2998C15.7039 8.67829 15.6612 9.05496 15.5774 9.42071Z" fill="black"/>
</svg>
