<svg width="27" height="27" viewBox="0 0 27 27" fill="none" xmlns="http://www.w3.org/2000/svg">
<g clip-path="url(#clip0_2003_5048)">
<path d="M13.5 6C9.35812 6 6 9.35812 6 13.5C6 14.907 6.39521 16.2188 7.06934 17.344L6.06714 21L9.80127 20.0198C10.8933 20.6407 12.1541 21 13.5 21C17.6419 21 21 17.6419 21 13.5C21 9.35812 17.6419 6 13.5 6ZM10.9329 10.0015C11.0547 10.0015 11.18 10.0007 11.2881 10.0063C11.4218 10.0095 11.5674 10.0193 11.7068 10.3274C11.8724 10.6936 12.233 11.6124 12.2793 11.7056C12.3255 11.7987 12.3583 11.9084 12.2939 12.0303C12.2327 12.1553 12.2008 12.2309 12.1108 12.3416C12.0177 12.4491 11.9157 12.5826 11.8313 12.6638C11.7382 12.7569 11.642 12.8591 11.7495 13.0447C11.857 13.2303 12.2304 13.8388 12.7822 14.3301C13.4916 14.9638 14.0901 15.1586 14.2764 15.2517C14.4626 15.3448 14.5705 15.3303 14.678 15.2053C14.7886 15.0834 15.1426 14.6653 15.2676 14.479C15.3895 14.2928 15.5139 14.325 15.6826 14.3862C15.8539 14.4475 16.7671 14.8974 16.9534 14.9905C17.1396 15.0836 17.2617 15.1297 17.3086 15.2053C17.3567 15.2834 17.3568 15.6554 17.2024 16.0891C17.048 16.5222 16.29 16.9411 15.95 16.9705C15.6068 17.0023 15.2866 17.1247 13.7197 16.5078C11.8297 15.7634 10.6378 13.8276 10.5447 13.7026C10.4516 13.5808 9.78784 12.6962 9.78784 11.7837C9.78784 10.8681 10.2679 10.4196 10.436 10.2334C10.6073 10.0471 10.8079 10.0015 10.9329 10.0015Z" fill="white"/>
</g>
<defs>
<clipPath id="clip0_2003_5048">
<rect width="27" height="27" fill="white"/>
</clipPath>
</defs>
</svg>
